REM DIRINDEX 1\2\4,1\2\5,1\2\6,1\3\7,1\3\8
REM DIRNAME folder01,folder02,folder03,folder04,folder05,folder06,folder07,folder08
TITLE ""
FILE "023_Lesson 19_Output_Stage.mp3" MP3
  TRACK 01 AUDIO
    TITLE "0:"
    INDEX 01 00:00:00
  TRACK 02 AUDIO
    TITLE "8:cjc128_3332"
    INDEX 01 00:00:11
  TRACK 03 AUDIO
    TITLE "0:"
    INDEX 01 00:03:29
  TRACK 04 AUDIO
    TITLE "8:cjc128_3333"
    INDEX 01 00:04:31
  TRACK 05 AUDIO
    TITLE "0:"
    INDEX 01 00:06:37
  TRACK 06 AUDIO
    TITLE "7:cjc128_3334"
    INDEX 01 00:07:19
  TRACK 07 AUDIO
    TITLE "0:"
    INDEX 01 00:10:57
  TRACK 08 AUDIO
    TITLE "8:cjc128_3335"
    INDEX 01 00:14:47
  TRACK 09 AUDIO
    TITLE "0:"
    INDEX 01 00:16:53
  TRACK 10 AUDIO
    TITLE "7:cjc128_3336"
    INDEX 01 00:17:35
  TRACK 11 AUDIO
    TITLE "0:"
    INDEX 01 00:19:44
  TRACK 12 AUDIO
    TITLE "8:cjc128_3337"
    INDEX 01 00:22:40
  TRACK 13 AUDIO
    TITLE "0:"
    INDEX 01 00:24:41
  TRACK 14 AUDIO
    TITLE "7:cjc128_3338"
    INDEX 01 00:25:27
  TRACK 15 AUDIO
    TITLE "0:"
    INDEX 01 00:29:52
  TRACK 16 AUDIO
    TITLE "8:cjc128_3339"
    INDEX 01 00:34:61
  TRACK 17 AUDIO
    TITLE "0:"
    INDEX 01 00:36:62
  TRACK 18 AUDIO
    TITLE "7:cjc128_3340"
    INDEX 01 00:37:52
  TRACK 19 AUDIO
    TITLE "0:"
    INDEX 01 00:41:49
  TRACK 20 AUDIO
    TITLE "8:cjc128_3341"
    INDEX 01 00:46:23
  TRACK 21 AUDIO
    TITLE "0:"
    INDEX 01 00:48:18
  TRACK 22 AUDIO
    TITLE "7:cjc128_3342"
    INDEX 01 00:49:02
  TRACK 23 AUDIO
    TITLE "0:"
    INDEX 01 00:52:08
  TRACK 24 AUDIO
    TITLE "8:cjc128_3343"
    INDEX 01 00:55:30
  TRACK 25 AUDIO
    TITLE "0:"
    INDEX 01 00:57:35
  TRACK 26 AUDIO
    TITLE "7:cjc128_3344"
    INDEX 01 00:58:15
  TRACK 27 AUDIO
    TITLE "0:"
    INDEX 01 01:01:56
  TRACK 28 AUDIO
    TITLE "8:cjc128_3345"
    INDEX 01 01:05:40
  TRACK 29 AUDIO
    TITLE "0:"
    INDEX 01 01:07:17
  TRACK 30 AUDIO
    TITLE "7:cjc128_3346"
    INDEX 01 01:08:11
  TRACK 31 AUDIO
    TITLE "0:"
    INDEX 01 01:11:29
  TRACK 32 AUDIO
    TITLE "8:cjc128_3347"
    INDEX 01 01:15:09
  TRACK 33 AUDIO
    TITLE "0:"
    INDEX 01 01:17:10
  TRACK 34 AUDIO
    TITLE "7:cjc128_3348"
    INDEX 01 01:17:65
  TRACK 35 AUDIO
    TITLE "0:"
    INDEX 01 01:20:42
  TRACK 36 AUDIO
    TITLE "8:cjc128_3349"
    INDEX 01 01:24:00
  TRACK 37 AUDIO
    TITLE "0:"
    INDEX 01 01:26:15
  TRACK 38 AUDIO
    TITLE "7:cjc128_3350"
    INDEX 01 01:26:70
  TRACK 39 AUDIO
    TITLE "0:"
    INDEX 01 01:31:04
  TRACK 40 AUDIO
    TITLE "8:cjc128_3351"
    INDEX 01 01:35:53
  TRACK 41 AUDIO
    TITLE "0:"
    INDEX 01 01:37:54
  TRACK 42 AUDIO
    TITLE "7:cjc128_3352"
    INDEX 01 01:38:47
  TRACK 43 AUDIO
    TITLE "0:"
    INDEX 01 01:40:56
  TRACK 44 AUDIO
    TITLE "8:cjc128_3353"
    INDEX 01 01:43:39
  TRACK 45 AUDIO
    TITLE "0:"
    INDEX 01 01:45:38
  TRACK 46 AUDIO
    TITLE "7:cjc128_3354"
    INDEX 01 01:46:31
  TRACK 47 AUDIO
    TITLE "0:"
    INDEX 01 01:49:10
  TRACK 48 AUDIO
    TITLE "8:cjc128_3355"
    INDEX 01 01:52:20
  TRACK 49 AUDIO
    TITLE "0:"
    INDEX 01 01:54:29
  TRACK 50 AUDIO
    TITLE "7:cjc128_3356"
    INDEX 01 01:55:09
  TRACK 51 AUDIO
    TITLE "0:"
    INDEX 01 01:57:72
  TRACK 52 AUDIO
    TITLE "8:cjc128_3357"
    INDEX 01 02:01:46
  TRACK 53 AUDIO
    TITLE "0:"
    INDEX 01 02:03:43
  TRACK 54 AUDIO
    TITLE "7:cjc128_3358"
    INDEX 01 02:04:41
  TRACK 55 AUDIO
    TITLE "0:"
    INDEX 01 02:07:73
  TRACK 56 AUDIO
    TITLE "8:cjc128_3359"
    INDEX 01 02:12:07
  TRACK 57 AUDIO
    TITLE "0:"
    INDEX 01 02:14:12
  TRACK 58 AUDIO
    TITLE "7:cjc128_3360"
    INDEX 01 02:15:05
  TRACK 59 AUDIO
    TITLE "0:"
    INDEX 01 02:18:10
  TRACK 60 AUDIO
    TITLE "8:cjc128_3361"
    INDEX 01 02:21:73
  TRACK 61 AUDIO
    TITLE "0:"
    INDEX 01 02:23:64
  TRACK 62 AUDIO
    TITLE "7:cjc128_3362"
    INDEX 01 02:24:47
  TRACK 63 AUDIO
    TITLE "0:"
    INDEX 01 02:27:65
  TRACK 64 AUDIO
    TITLE "8:cjc128_3363"
    INDEX 01 02:31:57
  TRACK 65 AUDIO
    TITLE "0:"
    INDEX 01 02:33:58
  TRACK 66 AUDIO
    TITLE "7:cjc128_3364"
    INDEX 01 02:34:44
  TRACK 67 AUDIO
    TITLE "0:"
    INDEX 01 02:37:46
  TRACK 68 AUDIO
    TITLE "8:cjc128_3365"
    INDEX 01 02:40:74
  TRACK 69 AUDIO
    TITLE "0:"
    INDEX 01 02:42:59
  TRACK 70 AUDIO
    TITLE "7:cjc128_3366"
    INDEX 01 02:43:51
  TRACK 71 AUDIO
    TITLE "0:"
    INDEX 01 02:48:38
  TRACK 72 AUDIO
    TITLE "8:cjc128_3367"
    INDEX 01 02:54:04
  TRACK 73 AUDIO
    TITLE "0:"
    INDEX 01 02:55:74
  TRACK 74 AUDIO
    TITLE "7:cjc128_3368"
    INDEX 01 02:56:65
  TRACK 75 AUDIO
    TITLE "0:"
    INDEX 01 03:01:60
  TRACK 76 AUDIO
    TITLE "8:cjc128_3369"
    INDEX 01 03:07:32
  TRACK 77 AUDIO
    TITLE "0:"
    INDEX 01 03:09:33
  TRACK 78 AUDIO
    TITLE "7:cjc128_3370"
    INDEX 01 03:10:26
  TRACK 79 AUDIO
    TITLE "0:"
    INDEX 01 03:12:60
  TRACK 80 AUDIO
    TITLE "8:cjc128_3371"
    INDEX 01 03:16:05
  TRACK 81 AUDIO
    TITLE "0:"
    INDEX 01 03:18:04
  TRACK 82 AUDIO
    TITLE "7:cjc128_3372"
    INDEX 01 03:18:61
  TRACK 83 AUDIO
    TITLE "0:"
    INDEX 01 03:23:11
  TRACK 84 AUDIO
    TITLE "8:cjc128_3373"
    INDEX 01 03:27:68
  TRACK 85 AUDIO
    TITLE "0:"
    INDEX 01 03:29:70
  TRACK 86 AUDIO
    TITLE "7:cjc128_3374"
    INDEX 01 03:30:64
  TRACK 87 AUDIO
    TITLE "0:"
    INDEX 01 03:32:49
  TRACK 88 AUDIO
    TITLE "7:cjc128_3375"
    INDEX 01 03:35:03
  TRACK 89 AUDIO
    TITLE "0:"
    INDEX 01 03:37:17
  TRACK 90 AUDIO
    TITLE "8:cjc128_3376"
    INDEX 01 03:40:00
  TRACK 91 AUDIO
    TITLE "0:"
    INDEX 01 03:42:05
  TRACK 92 AUDIO
    TITLE "7:cjc128_3377"
    INDEX 01 03:43:04
  TRACK 93 AUDIO
    TITLE "0:"
    INDEX 01 03:47:37
  TRACK 94 AUDIO
    TITLE "8:cjc128_3378"
    INDEX 01 03:52:42
  TRACK 95 AUDIO
    TITLE "0:"
    INDEX 01 03:54:53
  TRACK 96 AUDIO
    TITLE "7:cjc128_3379"
    INDEX 01 03:55:37
  TRACK 97 AUDIO
    TITLE "0:"
    INDEX 01 03:58:51
  TRACK 98 AUDIO
    TITLE "8:cjc128_3380"
    INDEX 01 04:02:39
  TRACK 99 AUDIO
    TITLE "0:"
    INDEX 01 04:04:34
  TRACK 100 AUDIO
    TITLE "7:cjc128_3381"
    INDEX 01 04:05:23
  TRACK 101 AUDIO
    TITLE "0:"
    INDEX 01 04:08:55
  TRACK 102 AUDIO
    TITLE "8:cjc128_3382"
    INDEX 01 04:12:47
  TRACK 103 AUDIO
    TITLE "0:"
    INDEX 01 04:14:54
  TRACK 104 AUDIO
    TITLE "7:cjc128_3383"
    INDEX 01 04:15:43
  TRACK 105 AUDIO
    TITLE "0:"
    INDEX 01 04:18:02
  TRACK 106 AUDIO
    TITLE "8:cjc128_3384"
    INDEX 01 04:21:09
  TRACK 107 AUDIO
    TITLE "0:"
    INDEX 01 04:22:67
  TRACK 108 AUDIO
    TITLE "7:cjc128_3385"
    INDEX 01 04:23:56
  TRACK 109 AUDIO
    TITLE "0:"
    INDEX 01 04:27:46
  TRACK 110 AUDIO
    TITLE "8:cjc128_3386"
    INDEX 01 04:32:02
  TRACK 111 AUDIO
    TITLE "0:"
    INDEX 01 04:34:13
  TRACK 112 AUDIO
    TITLE "7:cjc128_3387"
    INDEX 01 04:35:05
  TRACK 113 AUDIO
    TITLE "0:"
    INDEX 01 04:38:40
